<svg width="189" height="119" viewBox="0 0 189 119" fill="none" xmlns="http://www.w3.org/2000/svg">
<path d="M49.5 57L44.1202 97.5931C44.0522 98.1065 44.3873 98.5869 44.8927 98.7002L97.263 110.447C97.4187 110.482 97.5806 110.479 97.735 110.439L150.134 96.7267C150.627 96.5976 150.944 96.1184 150.87 95.6141L145.511 59.0722C145.504 59.0241 145.5 58.9756 145.5 58.9271V55" stroke="black" stroke-width="9" stroke-linecap="round"/>
<path d="M97 30.5L27.5 44" stroke="black" stroke-width="9" stroke-linecap="round"/>
<path d="M180.901 32.8442L96.9554 5.31334C96.3354 5.11 95.666 5.11435 95.0487 5.32571L11.9743 33.7697C9.30439 34.6838 9.25903 38.4436 11.9062 39.4219L94.9505 70.1125C95.6274 70.3627 96.3718 70.3605 97.0472 70.1063L181.023 38.5026C183.674 37.5048 183.593 33.727 180.901 32.8442Z" stroke="black" stroke-width="9" stroke-linecap="round" stroke-linejoin="round"/>
<path d="M21 46.5L18.5 57.5" stroke="black" stroke-width="9" stroke-linecap="round" stroke-linejoin="round"/>
<circle cx="17.5" cy="65.5" r="9.5" fill="black"/>
<path d="M15.2969 73.2088L5.04704 112.376C4.88483 112.996 5.33923 113.606 5.97956 113.629L26.3835 114.341C27.05 114.365 27.5521 113.741 27.3875 113.095L17.2334 73.2152C16.9786 72.2143 15.5584 72.2096 15.2969 73.2088Z" stroke="black" stroke-width="9" stroke-linecap="round" stroke-linejoin="round"/>
<rect x="10" y="84" width="13" height="28" fill="black"/>
</svg>
